<svg width="25" height="24" viewBox="0 0 25 24" fill="none" xmlns="http://www.w3.org/2000/svg">
<path d="M22.9129 8.33328L16.5721 7.40846L13.7385 1.66294C13.4838 1.14954 12.9869 0.890015 12.49 0.890015C11.9962 0.890015 11.5027 1.14607 11.2471 1.66294L8.41269 7.40803L2.07145 8.33198C0.934288 8.49689 0.478557 9.89823 1.30294 10.7011L5.89014 15.1711L4.80453 21.4847C4.65031 22.3866 5.369 23.11 6.17389 23.11C6.38746 23.11 6.60709 23.0592 6.81806 22.9473L12.4909 19.9667L18.1632 22.9481C18.3738 23.0588 18.593 23.1091 18.8057 23.1091C19.6114 23.1091 20.3314 22.3883 20.1772 21.486L19.0929 15.172L23.681 10.7028C24.5058 9.89996 24.05 8.49819 22.9129 8.33328ZM17.6391 13.68L16.8541 14.4446L17.0395 15.5244L17.8851 20.448L13.4608 18.1222L12.4913 17.6127L12.4926 3.84718L14.7032 8.32981L15.1876 9.31192L16.271 9.46988L21.2195 10.1916L17.6391 13.68Z" fill="#FBB224"/>
</svg>
